<?xml version="1.0" encoding="UTF-8" standalone="no"?>
<!DOCTYPE svg PUBLIC "-//W3C//DTD SVG 1.1//EN"
 "http://www.w3.org/Graphics/SVG/1.1/DTD/svg11.dtd">
<!-- Generated by graphviz version 2.43.0 (0)
 -->
<!-- Title: metar Pages: 1 -->
<svg width="1180pt" height="548pt"
 viewBox="0.00 0.00 1180.00 548.00" xmlns="http://www.w3.org/2000/svg" xmlns:xlink="http://www.w3.org/1999/xlink">
<g id="graph0" class="graph" transform="scale(1 1) rotate(0) translate(4 544)">
<title>metar</title>
<polygon fill="white" stroke="transparent" points="-4,4 -4,-544 1176,-544 1176,4 -4,4"/>
<!-- xmpparser -->
<g id="node1" class="node">
<title>xmpparser</title>
<ellipse fill="none" stroke="black" cx="969" cy="-162" rx="61.19" ry="18"/>
<text text-anchor="middle" x="969" y="-158.3" font-family="Times,serif" font-size="14.00">xmpparser</text>
</g>
<!-- tpub -->
<g id="node2" class="node">
<title>tpub</title>
<ellipse fill="none" stroke="black" cx="1058" cy="-18" rx="32.49" ry="18"/>
<text text-anchor="middle" x="1058" y="-14.3" font-family="Times,serif" font-size="14.00">tpub</text>
</g>
<!-- xmpparser&#45;&gt;tpub -->
<g id="edge1" class="edge">
<title>xmpparser&#45;&gt;tpub</title>
<path fill="none" stroke="black" d="M979.56,-144.15C995.1,-119.36 1024.23,-72.88 1042.29,-44.07"/>
<polygon fill="black" stroke="black" points="1045.38,-45.72 1047.73,-35.39 1039.45,-42 1045.38,-45.72"/>
</g>
<!-- ranges -->
<g id="node3" class="node">
<title>ranges</title>
<ellipse fill="none" stroke="black" cx="444" cy="-90" rx="42.49" ry="18"/>
<text text-anchor="middle" x="444" y="-86.3" font-family="Times,serif" font-size="14.00">ranges</text>
</g>
<!-- ranges&#45;&gt;tpub -->
<g id="edge3" class="edge">
<title>ranges&#45;&gt;tpub</title>
<path fill="none" stroke="black" d="M476,-78.08C483.78,-75.77 492.13,-73.55 500,-72 689.83,-34.56 921.4,-23.31 1015.35,-20.15"/>
<polygon fill="black" stroke="black" points="1015.71,-23.64 1025.59,-19.82 1015.49,-16.64 1015.71,-23.64"/>
</g>
<!-- metadata -->
<g id="node4" class="node">
<title>metadata</title>
<ellipse fill="none" stroke="black" cx="187" cy="-18" rx="54.69" ry="18"/>
<text text-anchor="middle" x="187" y="-14.3" font-family="Times,serif" font-size="14.00">metadata</text>
</g>
<!-- ranges&#45;&gt;metadata -->
<g id="edge2" class="edge">
<title>ranges&#45;&gt;metadata</title>
<path fill="none" stroke="black" d="M409.34,-79.56C365.15,-67.52 288.42,-46.62 237.67,-32.8"/>
<polygon fill="black" stroke="black" points="238.45,-29.39 227.88,-30.14 236.61,-36.14 238.45,-29.39"/>
</g>
<!-- imageData -->
<g id="node5" class="node">
<title>imageData</title>
<ellipse fill="none" stroke="black" cx="387" cy="-162" rx="61.19" ry="18"/>
<text text-anchor="middle" x="387" y="-158.3" font-family="Times,serif" font-size="14.00">imageData</text>
</g>
<!-- imageData&#45;&gt;ranges -->
<g id="edge5" class="edge">
<title>imageData&#45;&gt;ranges</title>
<path fill="none" stroke="black" d="M400.51,-144.41C407.54,-135.78 416.26,-125.06 424.05,-115.5"/>
<polygon fill="black" stroke="black" points="426.99,-117.43 430.59,-107.47 421.56,-113.01 426.99,-117.43"/>
</g>
<!-- imageData&#45;&gt;metadata -->
<g id="edge4" class="edge">
<title>imageData&#45;&gt;metadata</title>
<path fill="none" stroke="black" d="M376.42,-144.18C363.36,-124.57 339.48,-92.28 312,-72 289.33,-55.27 260.58,-42.61 236.37,-33.86"/>
<polygon fill="black" stroke="black" points="237.24,-30.46 226.65,-30.47 234.93,-37.07 237.24,-30.46"/>
</g>
<!-- tiff -->
<g id="node6" class="node">
<title>tiff</title>
<ellipse fill="none" stroke="black" cx="496" cy="-234" rx="27" ry="18"/>
<text text-anchor="middle" x="496" y="-230.3" font-family="Times,serif" font-size="14.00">tiff</text>
</g>
<!-- tiff&#45;&gt;xmpparser -->
<g id="edge10" class="edge">
<title>tiff&#45;&gt;xmpparser</title>
<path fill="none" stroke="black" d="M522.13,-229.32C582.07,-220.84 734.06,-199.21 861,-180 875.71,-177.77 891.55,-175.32 906.43,-172.98"/>
<polygon fill="black" stroke="black" points="907.23,-176.4 916.56,-171.38 906.14,-169.48 907.23,-176.4"/>
</g>
<!-- tiff&#45;&gt;tpub -->
<g id="edge9" class="edge">
<title>tiff&#45;&gt;tpub</title>
<path fill="none" stroke="black" d="M498.39,-215.86C502.13,-195.64 511.34,-162.44 533,-144 606.95,-81.04 905.42,-38.08 1016.28,-24.01"/>
<polygon fill="black" stroke="black" points="1016.92,-27.46 1026.41,-22.74 1016.05,-20.51 1016.92,-27.46"/>
</g>
<!-- tiff&#45;&gt;ranges -->
<g id="edge12" class="edge">
<title>tiff&#45;&gt;ranges</title>
<path fill="none" stroke="black" d="M489.93,-216.43C481.02,-192.09 464.29,-146.4 453.67,-117.4"/>
<polygon fill="black" stroke="black" points="456.91,-116.09 450.19,-107.9 450.34,-118.5 456.91,-116.09"/>
</g>
<!-- tiff&#45;&gt;metadata -->
<g id="edge7" class="edge">
<title>tiff&#45;&gt;metadata</title>
<path fill="none" stroke="black" d="M469.11,-232.14C430.68,-229.5 359.97,-219.22 317,-180 278.84,-145.17 307.33,-111.47 274,-72 261.79,-57.54 244.59,-45.91 228.7,-37.27"/>
<polygon fill="black" stroke="black" points="230.03,-34.02 219.55,-32.53 226.82,-40.23 230.03,-34.02"/>
</g>
<!-- tiff&#45;&gt;imageData -->
<g id="edge13" class="edge">
<title>tiff&#45;&gt;imageData</title>
<path fill="none" stroke="black" d="M477.01,-220.81C461.32,-210.73 438.67,-196.19 420.02,-184.21"/>
<polygon fill="black" stroke="black" points="421.81,-181.2 411.5,-178.74 418.03,-187.09 421.81,-181.2"/>
</g>
<!-- readNumber -->
<g id="node7" class="node">
<title>readNumber</title>
<ellipse fill="none" stroke="black" cx="612" cy="-162" rx="69.59" ry="18"/>
<text text-anchor="middle" x="612" y="-158.3" font-family="Times,serif" font-size="14.00">readNumber</text>
</g>
<!-- tiff&#45;&gt;readNumber -->
<g id="edge6" class="edge">
<title>tiff&#45;&gt;readNumber</title>
<path fill="none" stroke="black" d="M515.42,-221.28C532.27,-211.11 557.08,-196.14 577.34,-183.92"/>
<polygon fill="black" stroke="black" points="579.23,-186.86 585.99,-178.7 575.62,-180.87 579.23,-186.86"/>
</g>
<!-- tiffTags -->
<g id="node8" class="node">
<title>tiffTags</title>
<ellipse fill="none" stroke="black" cx="187" cy="-162" rx="45.49" ry="18"/>
<text text-anchor="middle" x="187" y="-158.3" font-family="Times,serif" font-size="14.00">tiffTags</text>
</g>
<!-- tiff&#45;&gt;tiffTags -->
<g id="edge8" class="edge">
<title>tiff&#45;&gt;tiffTags</title>
<path fill="none" stroke="black" d="M470.71,-227.27C419.3,-215.62 301.83,-189.01 235.29,-173.94"/>
<polygon fill="black" stroke="black" points="235.99,-170.51 225.46,-171.71 234.44,-177.34 235.99,-170.51"/>
</g>
<!-- bytesToString -->
<g id="node9" class="node">
<title>bytesToString</title>
<ellipse fill="none" stroke="black" cx="776" cy="-162" rx="76.09" ry="18"/>
<text text-anchor="middle" x="776" y="-158.3" font-family="Times,serif" font-size="14.00">bytesToString</text>
</g>
<!-- tiff&#45;&gt;bytesToString -->
<g id="edge11" class="edge">
<title>tiff&#45;&gt;bytesToString</title>
<path fill="none" stroke="black" d="M520.85,-226.79C564.27,-215.93 655.12,-193.22 715.85,-178.04"/>
<polygon fill="black" stroke="black" points="716.84,-181.4 725.7,-175.58 715.15,-174.61 716.84,-181.4"/>
</g>
<!-- readerJpeg -->
<g id="node10" class="node">
<title>readerJpeg</title>
<ellipse fill="none" stroke="black" cx="693" cy="-306" rx="61.99" ry="18"/>
<text text-anchor="middle" x="693" y="-302.3" font-family="Times,serif" font-size="14.00">readerJpeg</text>
</g>
<!-- readerJpeg&#45;&gt;xmpparser -->
<g id="edge17" class="edge">
<title>readerJpeg&#45;&gt;xmpparser</title>
<path fill="none" stroke="black" d="M750.42,-299.27C792.78,-292.9 850.39,-279.6 894,-252 919.32,-235.98 940.47,-208.65 953.79,-188.5"/>
<polygon fill="black" stroke="black" points="956.91,-190.12 959.34,-179.81 951.01,-186.35 956.91,-190.12"/>
</g>
<!-- readerJpeg&#45;&gt;tpub -->
<g id="edge15" class="edge">
<title>readerJpeg&#45;&gt;tpub</title>
<path fill="none" stroke="black" d="M754.69,-303.97C836.91,-298.79 978.99,-275.62 1039,-180 1064.79,-138.91 1064.46,-80.18 1061.5,-46.18"/>
<polygon fill="black" stroke="black" points="1064.97,-45.66 1060.47,-36.06 1058,-46.36 1064.97,-45.66"/>
</g>
<!-- readerJpeg&#45;&gt;ranges -->
<g id="edge19" class="edge">
<title>readerJpeg&#45;&gt;ranges</title>
<path fill="none" stroke="black" d="M728.37,-290.97C791.51,-263.98 912.41,-202.35 861,-144 837.19,-116.97 602.1,-100.11 495.76,-93.81"/>
<polygon fill="black" stroke="black" points="495.77,-90.3 485.58,-93.22 495.36,-97.29 495.77,-90.3"/>
</g>
<!-- readerJpeg&#45;&gt;metadata -->
<g id="edge14" class="edge">
<title>readerJpeg&#45;&gt;metadata</title>
<path fill="none" stroke="black" d="M632.61,-302.22C546.38,-295.07 387.9,-269.72 293,-180 250.5,-139.83 216.63,-79.48 199.41,-45.22"/>
<polygon fill="black" stroke="black" points="202.37,-43.3 194.81,-35.88 196.09,-46.4 202.37,-43.3"/>
</g>
<!-- readerJpeg&#45;&gt;imageData -->
<g id="edge20" class="edge">
<title>readerJpeg&#45;&gt;imageData</title>
<path fill="none" stroke="black" d="M632.47,-302C582.88,-297.13 512.57,-284.51 460,-252 434.79,-236.42 414.3,-209.02 401.51,-188.73"/>
<polygon fill="black" stroke="black" points="404.37,-186.7 396.19,-179.98 398.39,-190.34 404.37,-186.7"/>
</g>
<!-- readerJpeg&#45;&gt;tiff -->
<g id="edge21" class="edge">
<title>readerJpeg&#45;&gt;tiff</title>
<path fill="none" stroke="black" d="M655.48,-291.67C618.9,-278.67 563.83,-259.1 528.91,-246.69"/>
<polygon fill="black" stroke="black" points="529.79,-243.29 519.2,-243.24 527.45,-249.89 529.79,-243.29"/>
</g>
<!-- readerJpeg&#45;&gt;readNumber -->
<g id="edge16" class="edge">
<title>readerJpeg&#45;&gt;readNumber</title>
<path fill="none" stroke="black" d="M683.39,-288.15C669.4,-263.63 643.3,-217.87 626.83,-189"/>
<polygon fill="black" stroke="black" points="629.84,-187.22 621.85,-180.27 623.76,-190.69 629.84,-187.22"/>
</g>
<!-- readerJpeg&#45;&gt;tiffTags -->
<g id="edge22" class="edge">
<title>readerJpeg&#45;&gt;tiffTags</title>
<path fill="none" stroke="black" d="M633.61,-300.74C519.58,-292.16 278.36,-271.92 246,-252 222.56,-237.57 206.46,-209.94 197.07,-189.27"/>
<polygon fill="black" stroke="black" points="200.28,-187.87 193.12,-180.06 193.85,-190.63 200.28,-187.87"/>
</g>
<!-- readerJpeg&#45;&gt;bytesToString -->
<g id="edge18" class="edge">
<title>readerJpeg&#45;&gt;bytesToString</title>
<path fill="none" stroke="black" d="M702.85,-288.15C717.18,-263.63 743.93,-217.87 760.8,-189"/>
<polygon fill="black" stroke="black" points="763.88,-190.67 765.91,-180.27 757.84,-187.13 763.88,-190.67"/>
</g>
<!-- readerTiff -->
<g id="node11" class="node">
<title>readerTiff</title>
<ellipse fill="none" stroke="black" cx="330" cy="-306" rx="56.59" ry="18"/>
<text text-anchor="middle" x="330" y="-302.3" font-family="Times,serif" font-size="14.00">readerTiff</text>
</g>
<!-- readerTiff&#45;&gt;metadata -->
<g id="edge23" class="edge">
<title>readerTiff&#45;&gt;metadata</title>
<path fill="none" stroke="black" d="M284.93,-295.12C255.31,-287.04 216.86,-273.39 188,-252 155.65,-228.02 145.9,-218.15 133,-180 116.77,-132.01 146.66,-75.9 168.07,-44.2"/>
<polygon fill="black" stroke="black" points="170.98,-46.13 173.83,-35.93 165.24,-42.13 170.98,-46.13"/>
</g>
<!-- readerTiff&#45;&gt;tiff -->
<g id="edge24" class="edge">
<title>readerTiff&#45;&gt;tiff</title>
<path fill="none" stroke="black" d="M362.8,-291.17C392.34,-278.71 435.47,-260.52 464.58,-248.25"/>
<polygon fill="black" stroke="black" points="466.02,-251.44 473.88,-244.33 463.3,-244.99 466.02,-251.44"/>
</g>
<!-- readerTiff&#45;&gt;tiffTags -->
<g id="edge25" class="edge">
<title>readerTiff&#45;&gt;tiffTags</title>
<path fill="none" stroke="black" d="M283.52,-295.6C257.7,-288.03 227.03,-274.77 208,-252 193.63,-234.82 188.72,-209.54 187.21,-190.31"/>
<polygon fill="black" stroke="black" points="190.69,-189.87 186.67,-180.07 183.7,-190.24 190.69,-189.87"/>
</g>
<!-- readers -->
<g id="node12" class="node">
<title>readers</title>
<ellipse fill="none" stroke="black" cx="725" cy="-378" rx="46.29" ry="18"/>
<text text-anchor="middle" x="725" y="-374.3" font-family="Times,serif" font-size="14.00">readers</text>
</g>
<!-- readers&#45;&gt;tpub -->
<g id="edge30" class="edge">
<title>readers&#45;&gt;tpub</title>
<path fill="none" stroke="black" d="M760.34,-366.29C815.01,-348.57 921.75,-309.32 998,-252 1056.18,-208.26 1068.06,-180.35 1076,-108 1077.75,-92.1 1078.61,-87.79 1076,-72 1074.54,-63.14 1071.78,-53.77 1068.86,-45.41"/>
<polygon fill="black" stroke="black" points="1072.06,-43.97 1065.29,-35.82 1065.5,-46.41 1072.06,-43.97"/>
</g>
<!-- readers&#45;&gt;metadata -->
<g id="edge27" class="edge">
<title>readers&#45;&gt;metadata</title>
<path fill="none" stroke="black" d="M678.85,-376.76C530.58,-374.76 76,-358.56 76,-235 76,-235 76,-235 76,-161 76,-109.44 121.99,-65.42 154.76,-40.6"/>
<polygon fill="black" stroke="black" points="157.2,-43.15 163.19,-34.42 153.06,-37.51 157.2,-43.15"/>
</g>
<!-- readers&#45;&gt;readerJpeg -->
<g id="edge28" class="edge">
<title>readers&#45;&gt;readerJpeg</title>
<path fill="none" stroke="black" d="M717.25,-360.05C713.61,-352.09 709.19,-342.41 705.12,-333.51"/>
<polygon fill="black" stroke="black" points="708.24,-331.91 700.9,-324.28 701.87,-334.83 708.24,-331.91"/>
</g>
<!-- readers&#45;&gt;readerTiff -->
<g id="edge29" class="edge">
<title>readers&#45;&gt;readerTiff</title>
<path fill="none" stroke="black" d="M683.85,-369.71C613.26,-357.2 468.92,-331.62 388.11,-317.3"/>
<polygon fill="black" stroke="black" points="388.55,-313.82 378.1,-315.52 387.33,-320.71 388.55,-313.82"/>
</g>
<!-- version -->
<g id="node13" class="node">
<title>version</title>
<ellipse fill="none" stroke="black" cx="1061" cy="-306" rx="44.69" ry="18"/>
<text text-anchor="middle" x="1061" y="-302.3" font-family="Times,serif" font-size="14.00">version</text>
</g>
<!-- readers&#45;&gt;version -->
<g id="edge26" class="edge">
<title>readers&#45;&gt;version</title>
<path fill="none" stroke="black" d="M767.02,-370.19C821.52,-361.08 919.38,-343.76 1002,-324 1006.74,-322.87 1011.67,-321.6 1016.57,-320.27"/>
<polygon fill="black" stroke="black" points="1017.81,-323.56 1026.51,-317.51 1015.94,-316.81 1017.81,-323.56"/>
</g>
<!-- readable -->
<g id="node14" class="node">
<title>readable</title>
<ellipse fill="none" stroke="black" cx="804" cy="-450" rx="51.19" ry="18"/>
<text text-anchor="middle" x="804" y="-446.3" font-family="Times,serif" font-size="14.00">readable</text>
</g>
<!-- readable&#45;&gt;tpub -->
<g id="edge32" class="edge">
<title>readable&#45;&gt;tpub</title>
<path fill="none" stroke="black" d="M855.56,-449.27C948.38,-446.75 1134,-426.75 1134,-307 1134,-307 1134,-307 1134,-161 1134,-114.37 1101.75,-68.24 1079.27,-41.74"/>
<polygon fill="black" stroke="black" points="1081.87,-39.4 1072.65,-34.17 1076.6,-44 1081.87,-39.4"/>
</g>
<!-- readable&#45;&gt;metadata -->
<g id="edge31" class="edge">
<title>readable&#45;&gt;metadata</title>
<path fill="none" stroke="black" d="M754.33,-445.08C584.59,-431.03 38,-380.12 38,-307 38,-307 38,-307 38,-161 38,-115.41 56.37,-103.84 89,-72 104.33,-57.05 124.72,-45.11 142.94,-36.39"/>
<polygon fill="black" stroke="black" points="144.6,-39.47 152.23,-32.12 141.68,-33.11 144.6,-39.47"/>
</g>
<!-- readable&#45;&gt;readers -->
<g id="edge33" class="edge">
<title>readable&#45;&gt;readers</title>
<path fill="none" stroke="black" d="M786.07,-433.12C775.57,-423.81 762.13,-411.9 750.53,-401.62"/>
<polygon fill="black" stroke="black" points="752.66,-398.83 742.86,-394.82 748.02,-404.07 752.66,-398.83"/>
</g>
<!-- metar -->
<g id="node15" class="node">
<title>metar</title>
<ellipse fill="none" stroke="black" cx="804" cy="-522" rx="38.19" ry="18"/>
<text text-anchor="middle" x="804" y="-518.3" font-family="Times,serif" font-size="14.00">metar</text>
</g>
<!-- metar&#45;&gt;tpub -->
<g id="edge34" class="edge">
<title>metar&#45;&gt;tpub</title>
<path fill="none" stroke="black" d="M839.62,-515.12C931.97,-498.86 1172,-449.79 1172,-379 1172,-379 1172,-379 1172,-161 1172,-107.02 1121.29,-61.88 1087.51,-37.8"/>
<polygon fill="black" stroke="black" points="1089.13,-34.66 1078.91,-31.86 1085.15,-40.42 1089.13,-34.66"/>
</g>
<!-- metar&#45;&gt;metadata -->
<g id="edge38" class="edge">
<title>metar&#45;&gt;metadata</title>
<path fill="none" stroke="black" d="M766.3,-518.39C607.35,-506.9 0,-457.84 0,-379 0,-379 0,-379 0,-161 0,-115.41 16.46,-101.75 51,-72 74.09,-52.12 105.49,-39.22 132.3,-31.13"/>
<polygon fill="black" stroke="black" points="133.3,-34.49 141.94,-28.37 131.37,-27.76 133.3,-34.49"/>
</g>
<!-- metar&#45;&gt;readers -->
<g id="edge35" class="edge">
<title>metar&#45;&gt;readers</title>
<path fill="none" stroke="black" d="M782.22,-507.11C769.16,-497.64 753.33,-483.96 744,-468 733.01,-449.18 728.34,-424.81 726.38,-406.32"/>
<polygon fill="black" stroke="black" points="729.86,-405.87 725.51,-396.21 722.88,-406.47 729.86,-405.87"/>
</g>
<!-- metar&#45;&gt;version -->
<g id="edge36" class="edge">
<title>metar&#45;&gt;version</title>
<path fill="none" stroke="black" d="M822.07,-505.95C866.65,-468.84 982.01,-372.77 1034.41,-329.14"/>
<polygon fill="black" stroke="black" points="1036.81,-331.7 1042.26,-322.61 1032.33,-326.32 1036.81,-331.7"/>
</g>
<!-- metar&#45;&gt;readable -->
<g id="edge37" class="edge">
<title>metar&#45;&gt;readable</title>
<path fill="none" stroke="black" d="M804,-503.7C804,-495.98 804,-486.71 804,-478.11"/>
<polygon fill="black" stroke="black" points="807.5,-478.1 804,-468.1 800.5,-478.1 807.5,-478.1"/>
</g>
</g>
</svg>
