<?xml version="1.0" encoding="UTF-8" standalone="no"?>
<!DOCTYPE svg PUBLIC "-//W3C//DTD SVG 1.1//EN"
 "http://www.w3.org/Graphics/SVG/1.1/DTD/svg11.dtd">
<!-- Generated by graphviz version 2.40.1 (20161225.0304)
 -->
<!-- Title: metar Pages: 1 -->
<svg width="1046pt" height="548pt"
 viewBox="0.00 0.00 1046.00 548.00" xmlns="http://www.w3.org/2000/svg" xmlns:xlink="http://www.w3.org/1999/xlink">
<g id="graph0" class="graph" transform="scale(1 1) rotate(0) translate(4 544)">
<title>metar</title>
<polygon fill="#ffffff" stroke="transparent" points="-4,4 -4,-544 1042,-544 1042,4 -4,4"/>
<!-- metar -->
<g id="node1" class="node">
<title>metar</title>
<ellipse fill="none" stroke="#000000" cx="867" cy="-522" rx="30.4775" ry="18"/>
<text text-anchor="middle" x="867" y="-517.8" font-family="Times,serif" font-size="14.00" fill="#000000">metar</text>
</g>
<!-- tpub -->
<g id="node2" class="node">
<title>tpub</title>
<ellipse fill="none" stroke="#000000" cx="114" cy="-18" rx="27" ry="18"/>
<text text-anchor="middle" x="114" y="-13.8" font-family="Times,serif" font-size="14.00" fill="#000000">tpub</text>
</g>
<!-- metar&#45;&gt;tpub -->
<g id="edge1" class="edge">
<title>metar&#45;&gt;tpub</title>
<path fill="none" stroke="#000000" d="M836.9041,-520.2547C683.9504,-510.9938 0,-464.7338 0,-378 0,-378 0,-378 0,-162 0,-106.9719 51.808,-60.6947 85.5729,-36.3777"/>
<polygon fill="#000000" stroke="#000000" points="87.9472,-38.9888 94.1427,-30.3942 83.9398,-33.2493 87.9472,-38.9888"/>
</g>
<!-- readers -->
<g id="node3" class="node">
<title>readers</title>
<ellipse fill="none" stroke="#000000" cx="799" cy="-378" rx="35.7714" ry="18"/>
<text text-anchor="middle" x="799" y="-373.8" font-family="Times,serif" font-size="14.00" fill="#000000">readers</text>
</g>
<!-- metar&#45;&gt;readers -->
<g id="edge32" class="edge">
<title>metar&#45;&gt;readers</title>
<path fill="none" stroke="#000000" d="M849.4813,-507.1887C838.7834,-497.1923 825.7199,-483.1051 818,-468 808.1582,-448.7432 803.412,-424.6749 801.1245,-406.2742"/>
<polygon fill="#000000" stroke="#000000" points="804.5878,-405.7443 800.0418,-396.1743 797.6277,-406.4905 804.5878,-405.7443"/>
</g>
<!-- version -->
<g id="node4" class="node">
<title>version</title>
<ellipse fill="none" stroke="#000000" cx="936" cy="-306" rx="36.2818" ry="18"/>
<text text-anchor="middle" x="936" y="-301.8" font-family="Times,serif" font-size="14.00" fill="#000000">version</text>
</g>
<!-- metar&#45;&gt;version -->
<g id="edge33" class="edge">
<title>metar&#45;&gt;version</title>
<path fill="none" stroke="#000000" d="M884.9619,-507.4034C895.8365,-497.4927 908.9305,-483.4202 916,-468 935.9813,-424.4162 938.2871,-367.6821 937.5533,-334.2165"/>
<polygon fill="#000000" stroke="#000000" points="941.0513,-334.0952 937.2268,-324.2147 934.055,-334.3236 941.0513,-334.0952"/>
</g>
<!-- metadata -->
<g id="node5" class="node">
<title>metadata</title>
<ellipse fill="none" stroke="#000000" cx="859" cy="-18" rx="42.0438" ry="18"/>
<text text-anchor="middle" x="859" y="-13.8" font-family="Times,serif" font-size="14.00" fill="#000000">metadata</text>
</g>
<!-- metar&#45;&gt;metadata -->
<g id="edge38" class="edge">
<title>metar&#45;&gt;metadata</title>
<path fill="none" stroke="#000000" d="M893.7188,-513.4722C941.8125,-496.2592 1038,-452.5185 1038,-378 1038,-378 1038,-378 1038,-162 1038,-92.9132 956.0474,-51.3913 903.0463,-31.7618"/>
<polygon fill="#000000" stroke="#000000" points="904.1076,-28.4243 893.513,-28.3496 901.7486,-35.0149 904.1076,-28.4243"/>
</g>
<!-- readable -->
<g id="node15" class="node">
<title>readable</title>
<ellipse fill="none" stroke="#000000" cx="867" cy="-450" rx="40.1057" ry="18"/>
<text text-anchor="middle" x="867" y="-445.8" font-family="Times,serif" font-size="14.00" fill="#000000">readable</text>
</g>
<!-- metar&#45;&gt;readable -->
<g id="edge37" class="edge">
<title>metar&#45;&gt;readable</title>
<path fill="none" stroke="#000000" d="M867,-503.8314C867,-496.131 867,-486.9743 867,-478.4166"/>
<polygon fill="#000000" stroke="#000000" points="870.5001,-478.4132 867,-468.4133 863.5001,-478.4133 870.5001,-478.4132"/>
</g>
<!-- readers&#45;&gt;tpub -->
<g id="edge31" class="edge">
<title>readers&#45;&gt;tpub</title>
<path fill="none" stroke="#000000" d="M763.6388,-374.7671C618.4824,-361.0316 76,-304.9524 76,-234 76,-234 76,-234 76,-162 76,-119.9055 91.3687,-73.1122 102.5585,-44.6212"/>
<polygon fill="#000000" stroke="#000000" points="105.8056,-45.9274 106.3101,-35.3446 99.3162,-43.3029 105.8056,-45.9274"/>
</g>
<!-- readers&#45;&gt;version -->
<g id="edge2" class="edge">
<title>readers&#45;&gt;version</title>
<path fill="none" stroke="#000000" d="M823.8097,-364.9613C845.6893,-353.4626 877.7753,-336.5998 902.035,-323.8502"/>
<polygon fill="#000000" stroke="#000000" points="903.6882,-326.9354 910.9119,-319.185 900.4317,-320.739 903.6882,-326.9354"/>
</g>
<!-- readers&#45;&gt;metadata -->
<g id="edge3" class="edge">
<title>readers&#45;&gt;metadata</title>
<path fill="none" stroke="#000000" d="M817.1169,-362.3698C828.2931,-352.1573 842.4565,-338.1341 853,-324 895.2066,-267.4198 906.9846,-249.3781 920,-180 928.8962,-132.5789 929.9551,-115.4602 909,-72 903.4509,-60.4913 894.6076,-49.734 885.8905,-40.8972"/>
<polygon fill="#000000" stroke="#000000" points="888.3053,-38.3637 878.6728,-33.9517 883.4515,-43.4076 888.3053,-38.3637"/>
</g>
<!-- readerJpeg -->
<g id="node6" class="node">
<title>readerJpeg</title>
<ellipse fill="none" stroke="#000000" cx="525" cy="-306" rx="48.3083" ry="18"/>
<text text-anchor="middle" x="525" y="-301.8" font-family="Times,serif" font-size="14.00" fill="#000000">readerJpeg</text>
</g>
<!-- readers&#45;&gt;readerJpeg -->
<g id="edge26" class="edge">
<title>readers&#45;&gt;readerJpeg</title>
<path fill="none" stroke="#000000" d="M767.301,-369.6703C719.9919,-357.2388 630.4972,-333.7219 574.5129,-319.0107"/>
<polygon fill="#000000" stroke="#000000" points="575.3688,-315.6168 564.8076,-316.4604 573.5897,-322.387 575.3688,-315.6168"/>
</g>
<!-- readerTiff -->
<g id="node14" class="node">
<title>readerTiff</title>
<ellipse fill="none" stroke="#000000" cx="799" cy="-306" rx="45.4614" ry="18"/>
<text text-anchor="middle" x="799" y="-301.8" font-family="Times,serif" font-size="14.00" fill="#000000">readerTiff</text>
</g>
<!-- readers&#45;&gt;readerTiff -->
<g id="edge30" class="edge">
<title>readers&#45;&gt;readerTiff</title>
<path fill="none" stroke="#000000" d="M799,-359.8314C799,-352.131 799,-342.9743 799,-334.4166"/>
<polygon fill="#000000" stroke="#000000" points="802.5001,-334.4132 799,-324.4133 795.5001,-334.4133 802.5001,-334.4132"/>
</g>
<!-- readerJpeg&#45;&gt;tpub -->
<g id="edge5" class="edge">
<title>readerJpeg&#45;&gt;tpub</title>
<path fill="none" stroke="#000000" d="M478.228,-301.1838C402.8114,-292.8792 258.1284,-274.5653 212,-252 169.3266,-231.1248 154.6939,-222.263 133,-180 111.0628,-137.263 109.8561,-80.0292 111.5385,-46.278"/>
<polygon fill="#000000" stroke="#000000" points="115.0381,-46.3905 112.1636,-36.1931 108.0515,-45.9574 115.0381,-46.3905"/>
</g>
<!-- readerJpeg&#45;&gt;metadata -->
<g id="edge4" class="edge">
<title>readerJpeg&#45;&gt;metadata</title>
<path fill="none" stroke="#000000" d="M562.384,-294.3339C613.2852,-276.7976 704.6127,-239.2434 762,-180 801.4419,-139.2824 831.8593,-79.6527 847.4467,-45.2413"/>
<polygon fill="#000000" stroke="#000000" points="850.7658,-46.3904 851.6236,-35.8304 844.3677,-43.5507 850.7658,-46.3904"/>
</g>
<!-- readNumber -->
<g id="node7" class="node">
<title>readNumber</title>
<ellipse fill="none" stroke="#000000" cx="484" cy="-162" rx="54.1058" ry="18"/>
<text text-anchor="middle" x="484" y="-157.8" font-family="Times,serif" font-size="14.00" fill="#000000">readNumber</text>
</g>
<!-- readerJpeg&#45;&gt;readNumber -->
<g id="edge6" class="edge">
<title>readerJpeg&#45;&gt;readNumber</title>
<path fill="none" stroke="#000000" d="M519.8902,-288.0535C512.8929,-263.4774 500.2579,-219.1008 492,-190.0974"/>
<polygon fill="#000000" stroke="#000000" points="495.2789,-188.832 489.1742,-180.1727 488.5464,-190.7489 495.2789,-188.832"/>
</g>
<!-- xmpparser -->
<g id="node8" class="node">
<title>xmpparser</title>
<ellipse fill="none" stroke="#000000" cx="189" cy="-162" rx="47.365" ry="18"/>
<text text-anchor="middle" x="189" y="-157.8" font-family="Times,serif" font-size="14.00" fill="#000000">xmpparser</text>
</g>
<!-- readerJpeg&#45;&gt;xmpparser -->
<g id="edge8" class="edge">
<title>readerJpeg&#45;&gt;xmpparser</title>
<path fill="none" stroke="#000000" d="M478.3241,-301.1644C410.0023,-293.371 286.8744,-276.3978 250,-252 227.0333,-236.8042 210.4321,-209.6978 200.4003,-189.1919"/>
<polygon fill="#000000" stroke="#000000" points="203.5233,-187.6074 196.1291,-180.0195 197.1776,-190.5623 203.5233,-187.6074"/>
</g>
<!-- bytesToString -->
<g id="node9" class="node">
<title>bytesToString</title>
<ellipse fill="none" stroke="#000000" cx="352" cy="-162" rx="59.7019" ry="18"/>
<text text-anchor="middle" x="352" y="-157.8" font-family="Times,serif" font-size="14.00" fill="#000000">bytesToString</text>
</g>
<!-- readerJpeg&#45;&gt;bytesToString -->
<g id="edge9" class="edge">
<title>readerJpeg&#45;&gt;bytesToString</title>
<path fill="none" stroke="#000000" d="M505.1547,-289.4814C474.5069,-263.971 415.533,-214.883 380.3829,-185.6251"/>
<polygon fill="#000000" stroke="#000000" points="382.3403,-182.7005 372.4153,-178.9931 377.8621,-188.0807 382.3403,-182.7005"/>
</g>
<!-- ranges -->
<g id="node10" class="node">
<title>ranges</title>
<ellipse fill="none" stroke="#000000" cx="627" cy="-90" rx="33.3752" ry="18"/>
<text text-anchor="middle" x="627" y="-85.8" font-family="Times,serif" font-size="14.00" fill="#000000">ranges</text>
</g>
<!-- readerJpeg&#45;&gt;ranges -->
<g id="edge12" class="edge">
<title>readerJpeg&#45;&gt;ranges</title>
<path fill="none" stroke="#000000" d="M483.6648,-296.6165C398.7385,-275.5212 217.8518,-220.1728 283,-144 302.3746,-121.3467 496.0856,-101.5463 584.0015,-93.6492"/>
<polygon fill="#000000" stroke="#000000" points="584.5284,-97.1163 594.1797,-92.7458 583.9094,-90.1437 584.5284,-97.1163"/>
</g>
<!-- imageData -->
<g id="node11" class="node">
<title>imageData</title>
<ellipse fill="none" stroke="#000000" cx="680" cy="-162" rx="48.3169" ry="18"/>
<text text-anchor="middle" x="680" y="-157.8" font-family="Times,serif" font-size="14.00" fill="#000000">imageData</text>
</g>
<!-- readerJpeg&#45;&gt;imageData -->
<g id="edge15" class="edge">
<title>readerJpeg&#45;&gt;imageData</title>
<path fill="none" stroke="#000000" d="M557.7688,-292.3945C577.609,-283.051 602.5561,-269.2326 621,-252 640.3577,-233.9137 656.3723,-208.2513 666.8083,-188.9544"/>
<polygon fill="#000000" stroke="#000000" points="669.931,-190.5357 671.4735,-180.0538 663.7311,-187.286 669.931,-190.5357"/>
</g>
<!-- tiff -->
<g id="node12" class="node">
<title>tiff</title>
<ellipse fill="none" stroke="#000000" cx="585" cy="-234" rx="27" ry="18"/>
<text text-anchor="middle" x="585" y="-229.8" font-family="Times,serif" font-size="14.00" fill="#000000">tiff</text>
</g>
<!-- readerJpeg&#45;&gt;tiff -->
<g id="edge24" class="edge">
<title>readerJpeg&#45;&gt;tiff</title>
<path fill="none" stroke="#000000" d="M539.5243,-288.5708C547.2963,-279.2444 556.9766,-267.6281 565.4059,-257.513"/>
<polygon fill="#000000" stroke="#000000" points="568.1243,-259.718 571.8374,-249.7951 562.7467,-255.2367 568.1243,-259.718"/>
</g>
<!-- tiffTags -->
<g id="node13" class="node">
<title>tiffTags</title>
<ellipse fill="none" stroke="#000000" cx="859" cy="-162" rx="37.157" ry="18"/>
<text text-anchor="middle" x="859" y="-157.8" font-family="Times,serif" font-size="14.00" fill="#000000">tiffTags</text>
</g>
<!-- readerJpeg&#45;&gt;tiffTags -->
<g id="edge25" class="edge">
<title>readerJpeg&#45;&gt;tiffTags</title>
<path fill="none" stroke="#000000" d="M572.1261,-301.8066C642.5233,-294.7561 770.8527,-278.6263 808,-252 829.1997,-236.8046 842.7598,-209.8837 850.5254,-189.4322"/>
<polygon fill="#000000" stroke="#000000" points="853.8296,-190.5866 853.8802,-179.9919 847.2337,-188.2426 853.8296,-190.5866"/>
</g>
<!-- xmpparser&#45;&gt;tpub -->
<g id="edge7" class="edge">
<title>xmpparser&#45;&gt;tpub</title>
<path fill="none" stroke="#000000" d="M179.6528,-144.0535C166.5994,-118.9908 142.8208,-73.336 127.7465,-44.3933"/>
<polygon fill="#000000" stroke="#000000" points="130.7197,-42.5249 122.9961,-35.2725 124.5113,-45.7584 130.7197,-42.5249"/>
</g>
<!-- ranges&#45;&gt;tpub -->
<g id="edge11" class="edge">
<title>ranges&#45;&gt;tpub</title>
<path fill="none" stroke="#000000" d="M601.0215,-78.723C594.2815,-76.1672 586.9586,-73.707 580,-72 423.679,-33.6535 230.9971,-22.331 151.2542,-19.1612"/>
<polygon fill="#000000" stroke="#000000" points="151.3348,-15.6619 141.2098,-18.7819 151.0705,-22.6569 151.3348,-15.6619"/>
</g>
<!-- ranges&#45;&gt;metadata -->
<g id="edge10" class="edge">
<title>ranges&#45;&gt;metadata</title>
<path fill="none" stroke="#000000" d="M655.9139,-81.0267C695.861,-68.6293 768.2792,-46.1547 814.9733,-31.6635"/>
<polygon fill="#000000" stroke="#000000" points="816.3002,-34.9164 824.8134,-28.6096 814.2253,-28.231 816.3002,-34.9164"/>
</g>
<!-- imageData&#45;&gt;metadata -->
<g id="edge13" class="edge">
<title>imageData&#45;&gt;metadata</title>
<path fill="none" stroke="#000000" d="M688.6686,-143.9737C698.9925,-124.109 717.91,-92.2902 742,-72 763.2603,-54.0931 791.4444,-40.848 814.8232,-31.9576"/>
<polygon fill="#000000" stroke="#000000" points="816.3249,-35.1352 824.5142,-28.4132 813.9204,-28.5611 816.3249,-35.1352"/>
</g>
<!-- imageData&#45;&gt;ranges -->
<g id="edge14" class="edge">
<title>imageData&#45;&gt;ranges</title>
<path fill="none" stroke="#000000" d="M667.1702,-144.5708C660.6304,-135.6866 652.5611,-124.7245 645.3744,-114.9615"/>
<polygon fill="#000000" stroke="#000000" points="648.0936,-112.7514 639.3467,-106.7729 642.4563,-116.9012 648.0936,-112.7514"/>
</g>
<!-- tiff&#45;&gt;tpub -->
<g id="edge19" class="edge">
<title>tiff&#45;&gt;tpub</title>
<path fill="none" stroke="#000000" d="M582.087,-215.7576C577.883,-195.3925 568.1588,-162.83 547,-144 486.8132,-90.4376 243.5224,-41.5574 150.4535,-24.4522"/>
<polygon fill="#000000" stroke="#000000" points="150.8468,-20.9663 140.3815,-22.6176 149.5924,-27.853 150.8468,-20.9663"/>
</g>
<!-- tiff&#45;&gt;metadata -->
<g id="edge17" class="edge">
<title>tiff&#45;&gt;metadata</title>
<path fill="none" stroke="#000000" d="M611.8588,-231.2085C645.2874,-226.3795 702.2057,-213.5116 737,-180 774.2119,-144.1599 747.7127,-112.3332 780,-72 791.3491,-57.8227 807.4102,-45.907 822.0899,-36.9065"/>
<polygon fill="#000000" stroke="#000000" points="824.1401,-39.7617 830.997,-31.6849 820.6,-33.7228 824.1401,-39.7617"/>
</g>
<!-- tiff&#45;&gt;readNumber -->
<g id="edge16" class="edge">
<title>tiff&#45;&gt;readNumber</title>
<path fill="none" stroke="#000000" d="M566.475,-220.7941C552.2173,-210.6302 532.183,-196.3483 515.4305,-184.4059"/>
<polygon fill="#000000" stroke="#000000" points="517.1917,-181.3631 507.0172,-178.4083 513.1283,-187.0631 517.1917,-181.3631"/>
</g>
<!-- tiff&#45;&gt;xmpparser -->
<g id="edge20" class="edge">
<title>tiff&#45;&gt;xmpparser</title>
<path fill="none" stroke="#000000" d="M558.7231,-229.4132C506.27,-220.2324 384.8637,-198.8592 283,-180 269.5898,-177.5172 255.1159,-174.7762 241.6389,-172.1977"/>
<polygon fill="#000000" stroke="#000000" points="242.0418,-168.7112 231.5614,-170.2645 240.723,-175.5859 242.0418,-168.7112"/>
</g>
<!-- tiff&#45;&gt;bytesToString -->
<g id="edge21" class="edge">
<title>tiff&#45;&gt;bytesToString</title>
<path fill="none" stroke="#000000" d="M560.0649,-226.2947C522.942,-214.8233 452.3099,-192.997 403.7197,-177.982"/>
<polygon fill="#000000" stroke="#000000" points="404.5966,-174.5898 394.009,-174.9813 402.5299,-181.2778 404.5966,-174.5898"/>
</g>
<!-- tiff&#45;&gt;ranges -->
<g id="edge22" class="edge">
<title>tiff&#45;&gt;ranges</title>
<path fill="none" stroke="#000000" d="M590.2344,-216.0535C597.4024,-191.4774 610.3456,-147.1008 618.8049,-118.0974"/>
<polygon fill="#000000" stroke="#000000" points="622.2596,-118.7527 621.6996,-108.1727 615.5396,-116.7927 622.2596,-118.7527"/>
</g>
<!-- tiff&#45;&gt;imageData -->
<g id="edge23" class="edge">
<title>tiff&#45;&gt;imageData</title>
<path fill="none" stroke="#000000" d="M602.8688,-220.4574C616.2017,-210.3524 634.7207,-196.3169 650.2708,-184.5316"/>
<polygon fill="#000000" stroke="#000000" points="652.6968,-187.0846 658.5524,-178.255 648.4686,-181.5058 652.6968,-187.0846"/>
</g>
<!-- tiff&#45;&gt;tiffTags -->
<g id="edge18" class="edge">
<title>tiff&#45;&gt;tiffTags</title>
<path fill="none" stroke="#000000" d="M610.2861,-227.3555C657.2781,-215.0072 758.5285,-188.4013 816.3056,-173.219"/>
<polygon fill="#000000" stroke="#000000" points="817.4392,-176.54 826.2214,-170.6134 815.6602,-169.7698 817.4392,-176.54"/>
</g>
<!-- readerTiff&#45;&gt;metadata -->
<g id="edge27" class="edge">
<title>readerTiff&#45;&gt;metadata</title>
<path fill="none" stroke="#000000" d="M822.2578,-290.366C835.8321,-280.4633 852.6589,-266.7689 865,-252 888.4728,-223.9095 895.8175,-215.4363 905,-180 917.4821,-131.83 893.0344,-76.1047 875.2445,-44.1619"/>
<polygon fill="#000000" stroke="#000000" points="878.2374,-42.3456 870.2128,-35.4278 872.172,-45.84 878.2374,-42.3456"/>
</g>
<!-- readerTiff&#45;&gt;tiff -->
<g id="edge28" class="edge">
<title>readerTiff&#45;&gt;tiff</title>
<path fill="none" stroke="#000000" d="M764.1409,-294.2717C723.9614,-280.7534 658.3783,-258.688 618.6966,-245.3372"/>
<polygon fill="#000000" stroke="#000000" points="619.7914,-242.0128 609.1973,-242.1412 617.5592,-248.6473 619.7914,-242.0128"/>
</g>
<!-- readerTiff&#45;&gt;tiffTags -->
<g id="edge29" class="edge">
<title>readerTiff&#45;&gt;tiffTags</title>
<path fill="none" stroke="#000000" d="M818.0023,-289.3802C827.9866,-279.5395 839.4742,-266.2356 846,-252 854.909,-232.5654 858.0303,-208.5074 858.9941,-190.1559"/>
<polygon fill="#000000" stroke="#000000" points="862.4944,-190.2025 859.3397,-180.0883 855.4986,-189.9623 862.4944,-190.2025"/>
</g>
<!-- readable&#45;&gt;tpub -->
<g id="edge35" class="edge">
<title>readable&#45;&gt;tpub</title>
<path fill="none" stroke="#000000" d="M827.2949,-447.3642C662.122,-435.8801 38,-387.1194 38,-306 38,-306 38,-306 38,-162 38,-114.8627 70.2452,-68.0366 92.7287,-41.1156"/>
<polygon fill="#000000" stroke="#000000" points="95.479,-43.2854 99.3464,-33.4216 90.172,-38.7207 95.479,-43.2854"/>
</g>
<!-- readable&#45;&gt;readers -->
<g id="edge36" class="edge">
<title>readable&#45;&gt;readers</title>
<path fill="none" stroke="#000000" d="M851.2285,-433.3008C842.4744,-424.0317 831.4313,-412.339 821.7568,-402.0954"/>
<polygon fill="#000000" stroke="#000000" points="824.0968,-399.4756 814.686,-394.6087 819.0077,-404.282 824.0968,-399.4756"/>
</g>
<!-- readable&#45;&gt;metadata -->
<g id="edge34" class="edge">
<title>readable&#45;&gt;metadata</title>
<path fill="none" stroke="#000000" d="M893.9145,-436.3855C932.7775,-414.59 1000,-367.9378 1000,-306 1000,-306 1000,-306 1000,-162 1000,-102.8361 938.4838,-59.0049 896.7166,-36.0637"/>
<polygon fill="#000000" stroke="#000000" points="898.3452,-32.9656 887.8737,-31.3533 895.0542,-39.1438 898.3452,-32.9656"/>
</g>
</g>
</svg>
